TITLE ""
FILE "P1Q_t_1310-1319.mp3" MP3
  TRACK 01 AUDIO
    TITLE "P1Q_t_1310-1319_01"
    INDEX 01 00:00:00
  TRACK 02 AUDIO
    TITLE "P1Q_t_1310-1319_02"
    INDEX 01 00:01:41
  TRACK 03 AUDIO
    TITLE "P1Q_t_1310-1319_03"
    INDEX 01 00:01:63
  TRACK 04 AUDIO
    TITLE "P1Q_t_1310-1319_04"
    INDEX 01 00:06:34
  TRACK 05 AUDIO
    TITLE "P1Q_t_1310-1319_05"
    INDEX 01 00:06:54
  TRACK 06 AUDIO
    TITLE "P1Q_t_1310-1319_06"
    INDEX 01 00:12:00
  TRACK 07 AUDIO
    TITLE "P1Q_t_1310-1319_07"
    INDEX 01 00:12:45
  TRACK 08 AUDIO
    TITLE "P1Q_t_1310-1319_08"
    INDEX 01 00:13:64
  TRACK 09 AUDIO
    TITLE "P1Q_t_1310-1319_09"
    INDEX 01 00:14:10
  TRACK 10 AUDIO
    TITLE "P1Q_t_1310-1319_10"
    INDEX 01 00:16:58
  TRACK 11 AUDIO
    TITLE "P1Q_t_1310-1319_11"
    INDEX 01 00:17:05
  TRACK 12 AUDIO
    TITLE "P1Q_t_1310-1319_12"
    INDEX 01 00:22:12
  TRACK 13 AUDIO
    TITLE "P1Q_t_1310-1319_13"
    INDEX 01 00:22:57
  TRACK 14 AUDIO
    TITLE "P1Q_t_1310-1319_14"
    INDEX 01 00:23:68
  TRACK 15 AUDIO
    TITLE "P1Q_t_1310-1319_15"
    INDEX 01 00:24:13
  TRACK 16 AUDIO
    TITLE "P1Q_t_1310-1319_16"
    INDEX 01 00:27:05
  TRACK 17 AUDIO
    TITLE "P1Q_t_1310-1319_17"
    INDEX 01 00:27:25
  TRACK 18 AUDIO
    TITLE "P1Q_t_1310-1319_18"
    INDEX 01 00:31:30
  TRACK 19 AUDIO
    TITLE "P1Q_t_1310-1319_19"
    INDEX 01 00:32:01
  TRACK 20 AUDIO
    TITLE "P1Q_t_1310-1319_20"
    INDEX 01 00:33:33
  TRACK 21 AUDIO
    TITLE "P1Q_t_1310-1319_21"
    INDEX 01 00:33:55
  TRACK 22 AUDIO
    TITLE "P1Q_t_1310-1319_22"
    INDEX 01 00:35:20
  TRACK 23 AUDIO
    TITLE "P1Q_t_1310-1319_23"
    INDEX 01 00:35:40
  TRACK 24 AUDIO
    TITLE "P1Q_t_1310-1319_24"
    INDEX 01 00:40:22
  TRACK 25 AUDIO
    TITLE "P1Q_t_1310-1319_25"
    INDEX 01 00:40:69
  TRACK 26 AUDIO
    TITLE "P1Q_t_1310-1319_26"
    INDEX 01 00:42:11
  TRACK 27 AUDIO
    TITLE "P1Q_t_1310-1319_27"
    INDEX 01 00:42:30
  TRACK 28 AUDIO
    TITLE "P1Q_t_1310-1319_28"
    INDEX 01 00:45:23
  TRACK 29 AUDIO
    TITLE "P1Q_t_1310-1319_29"
    INDEX 01 00:45:42
  TRACK 30 AUDIO
    TITLE "P1Q_t_1310-1319_30"
    INDEX 01 00:50:06
  TRACK 31 AUDIO
    TITLE "P1Q_t_1310-1319_31"
    INDEX 01 00:50:51
  TRACK 32 AUDIO
    TITLE "P1Q_t_1310-1319_32"
    INDEX 01 00:51:66
  TRACK 33 AUDIO
    TITLE "P1Q_t_1310-1319_33"
    INDEX 01 00:52:11
  TRACK 34 AUDIO
    TITLE "P1Q_t_1310-1319_34"
    INDEX 01 00:54:71
  TRACK 35 AUDIO
    TITLE "P1Q_t_1310-1319_35"
    INDEX 01 00:55:15
  TRACK 36 AUDIO
    TITLE "P1Q_t_1310-1319_36"
    INDEX 01 01:01:00
  TRACK 37 AUDIO
    TITLE "P1Q_t_1310-1319_37"
    INDEX 01 01:01:49
  TRACK 38 AUDIO
    TITLE "P1Q_t_1310-1319_38"
    INDEX 01 01:02:54
  TRACK 39 AUDIO
    TITLE "P1Q_t_1310-1319_39"
    INDEX 01 01:02:74
  TRACK 40 AUDIO
    TITLE "P1Q_t_1310-1319_40"
    INDEX 01 01:04:12
  TRACK 41 AUDIO
    TITLE "P1Q_t_1310-1319_41"
    INDEX 01 01:04:32
  TRACK 42 AUDIO
    TITLE "P1Q_t_1310-1319_42"
    INDEX 01 01:09:21
  TRACK 43 AUDIO
    TITLE "P1Q_t_1310-1319_43"
    INDEX 01 01:09:66
  TRACK 44 AUDIO
    TITLE "P1Q_t_1310-1319_44"
    INDEX 01 01:11:14
  TRACK 45 AUDIO
    TITLE "P1Q_t_1310-1319_45"
    INDEX 01 01:11:36
  TRACK 46 AUDIO
    TITLE "P1Q_t_1310-1319_46"
    INDEX 01 01:14:62
  TRACK 47 AUDIO
    TITLE "P1Q_t_1310-1319_47"
    INDEX 01 01:15:06
  TRACK 48 AUDIO
    TITLE "P1Q_t_1310-1319_48"
    INDEX 01 01:19:73
  TRACK 49 AUDIO
    TITLE "P1Q_t_1310-1319_49"
    INDEX 01 01:20:45
  TRACK 50 AUDIO
    TITLE "P1Q_t_1310-1319_50"
    INDEX 01 01:21:58
  TRACK 51 AUDIO
    TITLE "P1Q_t_1310-1319_51"
    INDEX 01 01:22:04
  TRACK 52 AUDIO
    TITLE "P1Q_t_1310-1319_52"
    INDEX 01 01:23:51
  TRACK 53 AUDIO
    TITLE "P1Q_t_1310-1319_53"
    INDEX 01 01:23:68
  TRACK 54 AUDIO
    TITLE "P1Q_t_1310-1319_54"
    INDEX 01 01:28:07
  TRACK 55 AUDIO
    TITLE "P1Q_t_1310-1319_55"
    INDEX 01 01:28:60
  TRACK 56 AUDIO
    TITLE "P1Q_t_1310-1319_56"
    INDEX 01 01:29:57
  TRACK 57 AUDIO
    TITLE "P1Q_t_1310-1319_57"
    INDEX 01 01:30:04
  TRACK 58 AUDIO
    TITLE "P1Q_t_1310-1319_58"
    INDEX 01 01:32:12
  TRACK 59 AUDIO
    TITLE "P1Q_t_1310-1319_59"
    INDEX 01 01:32:32
  TRACK 60 AUDIO
    TITLE "P1Q_t_1310-1319_60"
    INDEX 01 01:36:30
